<?xml version="1.0" encoding="UTF-8" standalone="no"?>
<svg
   xmlns:dc="http://purl.org/dc/elements/1.1/"
   xmlns:cc="http://creativecommons.org/ns#"
   xmlns:rdf="http://www.w3.org/1999/02/22-rdf-syntax-ns#"
   xmlns:svg="http://www.w3.org/2000/svg"
   xmlns="http://www.w3.org/2000/svg"
   xmlns:sodipodi="http://sodipodi.sourceforge.net/DTD/sodipodi-0.dtd"
   xmlns:inkscape="http://www.inkscape.org/namespaces/inkscape"
   version="1.0"
   width="512"
   height="512"
   id="svg2"
   inkscape:version="0.48.4 r9939"
   sodipodi:docname="RAS.svg">
  <metadata
     id="metadata22">
    <rdf:RDF>
      <cc:Work
         rdf:about="">
        <dc:format>image/svg+xml</dc:format>
        <dc:type
           rdf:resource="http://purl.org/dc/dcmitype/StillImage" />
      </cc:Work>
    </rdf:RDF>
  </metadata>
  <defs
     id="defs20" />
  <sodipodi:namedview
     pagecolor="#ffffff"
     bordercolor="#666666"
     borderopacity="1"
     objecttolerance="10"
     gridtolerance="10"
     guidetolerance="10"
     inkscape:pageopacity="0"
     inkscape:pageshadow="2"
     inkscape:window-width="1920"
     inkscape:window-height="1017"
     id="namedview18"
     showgrid="false"
     inkscape:zoom="1.9066667"
     inkscape:cx="223.8127"
     inkscape:cy="272.33925"
     inkscape:window-x="1912"
     inkscape:window-y="1"
     inkscape:window-maximized="1"
     inkscape:current-layer="svg2" />
  <rect
     width="511.88812"
     height="127.97203"
     id="rect4"
     x="0"
     y="127.76573"
     style="fill:#000000" />
  <rect
     y="255.73776"
     width="511.88812"
     height="127.97203"
     id="rect6"
     x="0"
     style="fill:#007a3d" />
  <rect
     y="213.08041"
     width="511.88812"
     height="85.31469"
     id="rect8"
     x="0"
     style="fill:#ffffff" />
  <path
     d="M 0,127.76573 170.62937,255.73776 0,383.70979 z"
     id="path10"
     inkscape:connector-curvature="0"
     style="fill:#c4111b" />
  <circle
     d="m 340,150 c 0,22.09139 -17.90861,40 -40,40 -22.09139,0 -40,-17.90861 -40,-40 0,-22.09139 17.90861,-40 40,-40 22.09139,0 40,17.90861 40,40 z"
     cx="300"
     cy="150"
     r="40"
     id="circle12"
     sodipodi:cx="300"
     sodipodi:cy="150"
     sodipodi:rx="40"
     sodipodi:ry="40"
     style="fill:#c4111b"
     transform="matrix(0.85314685,0,0,0.85314685,0,127.76573)" />
  <circle
     d="m 355,150 c 0,22.09139 -17.90861,40 -40,40 -22.09139,0 -40,-17.90861 -40,-40 0,-22.09139 17.90861,-40 40,-40 22.09139,0 40,17.90861 40,40 z"
     cx="315"
     cy="150"
     r="40"
     id="circle14"
     sodipodi:cx="315"
     sodipodi:cy="150"
     sodipodi:rx="40"
     sodipodi:ry="40"
     style="fill:#ffffff"
     transform="matrix(0.85314685,0,0,0.85314685,0,127.76573)" />
  <path
     d="m 246.78376,276.40132 14.55156,-10.40219 14.43777,10.55948 -5.39638,-17.0538 14.50418,-10.4681 -17.8867,-0.13762 -5.47371,-17.02912 -5.6582,16.96872 -17.88713,-0.0564 14.38977,10.62486 -5.58116,16.99423 z"
     id="path16"
     inkscape:connector-curvature="0"
     style="fill:#c4111b" />
</svg>
